<?xml version="1.0" encoding="UTF-8"?>
<svg width="24px" height="24px" viewBox="0 0 24 24" version="1.1" xmlns="http://www.w3.org/2000/svg" xmlns:xlink="http://www.w3.org/1999/xlink">
    <title>CBA9D99E-6666-47F6-AAEB-77BD84917ABF@0.5x</title>
    <g id="Mobile" stroke="none" stroke-width="1" fill="none" fill-rule="evenodd">
        <g id="08.1" transform="translate(-36.000000, -268.000000)">
            <g id="Group" transform="translate(16.000000, 249.000000)">
                <g id="dark_mode_black_24dp" transform="translate(20.000000, 19.000000)">
                    <rect id="Rectangle" x="0" y="0" width="24" height="24"></rect>
                    <path d="M9.37,5.51 C9.19,6.15 9.1,6.82 9.1,7.5 C9.1,11.58 12.42,14.9 16.5,14.9 C17.18,14.9 17.85,14.81 18.49,14.63 C17.45,17.19 14.93,19 12,19 C8.14,19 5,15.86 5,12 C5,9.07 6.81,6.55 9.37,5.51 Z M12,3 C7.03,3 3,7.03 3,12 C3,16.97 7.03,21 12,21 C16.97,21 21,16.97 21,12 C21,11.54 20.96,11.08 20.9,10.64 C19.92,12.01 18.32,12.9 16.5,12.9 C13.52,12.9 11.1,10.48 11.1,7.5 C11.1,5.69 11.99,4.08 13.36,3.1 C12.92,3.04 12.46,3 12,3 L12,3 Z" id="Shape" fill="#FFFFFF" fill-rule="nonzero"></path>
                </g>
            </g>
        </g>
    </g>
</svg>